<svg width="22" height="23" viewBox="0 0 22 23" fill="none" xmlns="http://www.w3.org/2000/svg">
<path d="M11.0049 5.96741C7.88172 5.96741 5.36252 8.50235 5.36252 11.6451C5.36252 14.7878 7.88172 17.3228 11.0049 17.3228C14.1281 17.3228 16.6473 14.7878 16.6473 11.6451C16.6473 8.50235 14.1281 5.96741 11.0049 5.96741ZM11.0049 15.3363C8.98663 15.3363 7.33663 13.6809 7.33663 11.6451C7.33663 9.60923 8.98172 7.95386 11.0049 7.95386C13.0281 7.95386 14.6732 9.60923 14.6732 11.6451C14.6732 13.6809 13.0232 15.3363 11.0049 15.3363ZM18.1942 5.73517C18.1942 6.47144 17.6049 7.05946 16.8781 7.05946C16.1465 7.05946 15.5621 6.46649 15.5621 5.73517C15.5621 5.00384 16.1514 4.41087 16.8781 4.41087C17.6049 4.41087 18.1942 5.00384 18.1942 5.73517ZM21.9313 7.07923C21.8478 5.30526 21.4451 3.7339 20.1536 2.43925C18.867 1.1446 17.3054 0.739404 15.5424 0.650459C13.7255 0.546689 8.27948 0.546689 6.46252 0.650459C4.70449 0.734463 3.14288 1.13966 1.85136 2.43431C0.559842 3.72896 0.162074 5.30032 0.0736816 7.07429C-0.0294434 8.90261 -0.0294434 14.3826 0.0736816 16.2109C0.157164 17.9849 0.559842 19.5563 1.85136 20.8509C3.14288 22.1456 4.69957 22.5508 6.46252 22.6397C8.27948 22.7435 13.7255 22.7435 15.5424 22.6397C17.3054 22.5557 18.867 22.1505 20.1536 20.8509C21.4402 19.5563 21.8429 17.9849 21.9313 16.2109C22.0344 14.3826 22.0344 8.90755 21.9313 7.07923ZM19.5839 18.1727C19.2009 19.1412 18.4594 19.8874 17.492 20.2777C16.0433 20.8559 12.6058 20.7225 11.0049 20.7225C9.40404 20.7225 5.96163 20.8509 4.51788 20.2777C3.55538 19.8923 2.81386 19.1461 2.42591 18.1727C1.85136 16.715 1.98395 13.256 1.98395 11.6451C1.98395 10.0342 1.85627 6.57026 2.42591 5.11749C2.80895 4.14897 3.55047 3.40282 4.51788 3.01245C5.96654 2.43431 9.40404 2.56772 11.0049 2.56772C12.6058 2.56772 16.0482 2.43925 17.492 3.01245C18.4545 3.39788 19.196 4.14403 19.5839 5.11749C20.1585 6.57521 20.0259 10.0342 20.0259 11.6451C20.0259 13.256 20.1585 16.7199 19.5839 18.1727Z" fill="#52575C"/>
</svg>
