<svg width="14" height="16" viewBox="0 0 14 16" fill="none" xmlns="http://www.w3.org/2000/svg">
<path fill-rule="evenodd" clip-rule="evenodd" d="M2.49922 7.0998V5.2998C2.49922 4.10633 2.97332 2.96174 3.81724 2.11782C4.66115 1.27391 5.80574 0.799805 6.99922 0.799805C8.19269 0.799805 9.33729 1.27391 10.1812 2.11782C11.0251 2.96174 11.4992 4.10633 11.4992 5.2998V7.0998C11.9766 7.0998 12.4344 7.28945 12.772 7.62701C13.1096 7.96458 13.2992 8.42241 13.2992 8.8998V13.3998C13.2992 13.8772 13.1096 14.335 12.772 14.6726C12.4344 15.0102 11.9766 15.1998 11.4992 15.1998H2.49922C2.02183 15.1998 1.56399 15.0102 1.22643 14.6726C0.888861 14.335 0.699219 13.8772 0.699219 13.3998V8.8998C0.699219 8.42241 0.888861 7.96458 1.22643 7.62701C1.56399 7.28945 2.02183 7.0998 2.49922 7.0998ZM9.69922 5.2998V7.0998H4.29922V5.2998C4.29922 4.58372 4.58368 3.89696 5.09003 3.39062C5.59638 2.88427 6.28313 2.5998 6.99922 2.5998C7.7153 2.5998 8.40206 2.88427 8.90841 3.39062C9.41476 3.89696 9.69922 4.58372 9.69922 5.2998Z" fill="#64748B"/>
</svg>
