<svg width="24" height="25" viewBox="0 0 24 25" fill="none" xmlns="http://www.w3.org/2000/svg">
<path d="M12 0.387085C5.37256 0.387085 0 5.75965 0 12.3871C0 19.0145 5.37256 24.3871 12 24.3871C18.6274 24.3871 24 19.0145 24 12.3871C24 5.75965 18.6274 0.387085 12 0.387085ZM17.5622 8.54805C17.3816 10.4456 16.6002 15.0502 16.2025 17.1755C16.0343 18.0747 15.7031 18.3762 15.3825 18.4057C14.6857 18.4699 14.1564 17.9452 13.4815 17.5028C12.4253 16.8104 11.8287 16.3795 10.8034 15.7039C9.61868 14.9231 10.3867 14.4942 11.0619 13.7926C11.2386 13.6091 14.309 10.8163 14.3685 10.5629C14.3759 10.5312 14.383 10.4129 14.3126 10.3508C14.2423 10.2887 14.1389 10.3097 14.0641 10.3266C13.9582 10.3507 12.271 11.4659 9.00247 13.6722C8.5236 14.001 8.08982 14.1613 7.70114 14.1529C7.27268 14.1436 6.4485 13.9106 5.83577 13.7114C5.08427 13.4672 4.48698 13.338 4.539 12.9232C4.5661 12.707 4.86368 12.4861 5.43174 12.2603C8.93 10.7361 11.2627 9.73129 12.4299 9.24575C15.7624 7.8596 16.4549 7.61883 16.9062 7.61079C17.0055 7.60915 17.2275 7.63373 17.3712 7.75039C17.4668 7.8335 17.5278 7.94947 17.542 8.07536C17.5664 8.23168 17.5731 8.39023 17.5622 8.54805Z" fill="#52575C"/>
</svg>
