<svg width="16" height="16" viewBox="0 0 16 16" fill="none" xmlns="http://www.w3.org/2000/svg">
<path fill-rule="evenodd" clip-rule="evenodd" d="M15.2008 7.9998C15.2008 9.90936 14.4422 11.7407 13.092 13.091C11.7417 14.4412 9.91034 15.1998 8.00078 15.1998C6.09122 15.1998 4.25987 14.4412 2.90961 13.091C1.55935 11.7407 0.800781 9.90936 0.800781 7.9998C0.800781 6.09025 1.55935 4.2589 2.90961 2.90864C4.25987 1.55837 6.09122 0.799805 8.00078 0.799805C9.91034 0.799805 11.7417 1.55837 13.092 2.90864C14.4422 4.2589 15.2008 6.09025 15.2008 7.9998ZM9.80078 5.2998C9.80078 5.77719 9.61114 6.23503 9.27357 6.5726C8.93601 6.91016 8.47817 7.0998 8.00078 7.0998C7.52339 7.0998 7.06555 6.91016 6.72799 6.5726C6.39042 6.23503 6.20078 5.77719 6.20078 5.2998C6.20078 4.82241 6.39042 4.36458 6.72799 4.02701C7.06555 3.68945 7.52339 3.4998 8.00078 3.4998C8.47817 3.4998 8.93601 3.68945 9.27357 4.02701C9.61114 4.36458 9.80078 4.82241 9.80078 5.2998ZM8.00078 8.8998C7.13912 8.89963 6.29553 9.14684 5.57026 9.61207C4.84498 10.0773 4.26852 10.741 3.90938 11.5242C4.41579 12.1133 5.04363 12.586 5.74983 12.9097C6.45604 13.2335 7.22391 13.4007 8.00078 13.3998C8.77766 13.4007 9.54553 13.2335 10.2517 12.9097C10.9579 12.586 11.5858 12.1133 12.0922 11.5242C11.733 10.741 11.1566 10.0773 10.4313 9.61207C9.70603 9.14684 8.86244 8.89963 8.00078 8.8998Z" fill="#64748B"/>
</svg>
